<svg id="telephone67" xmlns="http://www.w3.org/2000/svg" width="27.306" height="27.306" viewBox="0 0 27.306 27.306">
  <g id="_x32_24._Phone">
    <g id="Group_40" data-name="Group 40">
      <path id="Path_19" data-name="Path 19" d="M12.287,15.018a1.365,1.365,0,1,0-1.365-1.365A1.366,1.366,0,0,0,12.287,15.018Zm0-4.1a1.365,1.365,0,1,0-1.365-1.365A1.366,1.366,0,0,0,12.287,10.922ZM5.461,0H2.731A2.73,2.73,0,0,0,0,2.731V5.46A2.716,2.716,0,0,0,1.365,7.812v11.68A2.717,2.717,0,0,0,0,21.844v2.73a2.73,2.73,0,0,0,2.731,2.731h2.73a2.731,2.731,0,0,0,2.731-2.731v-2.73a2.718,2.718,0,0,0-1.365-2.351V7.813A2.719,2.719,0,0,0,8.192,5.461V2.731A2.73,2.73,0,0,0,5.461,0Zm6.826,19.113a1.365,1.365,0,1,0-1.365-1.365A1.365,1.365,0,0,0,12.287,19.113ZM24.575,1.365H9.318A4.07,4.07,0,0,1,9.556,2.73V4.1H24.575V23.21H9.556v1.365a4.069,4.069,0,0,1-.238,1.365H24.575a2.73,2.73,0,0,0,2.731-2.73V4.1A2.731,2.731,0,0,0,24.575,1.365Zm-8.191,9.558a1.365,1.365,0,1,0-1.365-1.365A1.366,1.366,0,0,0,16.383,10.922Zm4.1,8.192a1.365,1.365,0,1,0-1.365-1.365A1.366,1.366,0,0,0,20.479,19.114Zm0-8.192a1.365,1.365,0,1,0-1.365-1.365A1.366,1.366,0,0,0,20.479,10.922Zm-4.1,4.1a1.365,1.365,0,1,0-1.365-1.365A1.366,1.366,0,0,0,16.383,15.018Zm0,4.1a1.365,1.365,0,1,0-1.365-1.365A1.366,1.366,0,0,0,16.383,19.114Zm4.1-4.1a1.365,1.365,0,1,0-1.365-1.365A1.366,1.366,0,0,0,20.479,15.018Z" fill="#441837"/>
    </g>
  </g>
</svg>
